<svg width="14" height="40" viewBox="0 0 14 40" fill="none" xmlns="http://www.w3.org/2000/svg">
<path d="M7.35355 0.646446C7.15829 0.451184 6.84171 0.451184 6.64645 0.646446L3.46447 3.82843C3.2692 4.02369 3.2692 4.34027 3.46447 4.53553C3.65973 4.7308 3.97631 4.7308 4.17157 4.53553L7 1.70711L9.82843 4.53553C10.0237 4.7308 10.3403 4.7308 10.5355 4.53553C10.7308 4.34027 10.7308 4.02369 10.5355 3.82843L7.35355 0.646446ZM7.5 9L7.5 1L6.5 1L6.5 9L7.5 9Z" fill="#DD3627"/>
<path d="M10.5002 19.13C11.0011 19.2297 11.4449 19.5173 11.7406 19.9339C12.0362 20.3504 12.1613 20.8642 12.0902 21.37L11.4802 25.64C11.4462 25.8803 11.3261 26.1 11.1421 26.2582C10.9581 26.4165 10.7229 26.5024 10.4802 26.5H4.00021C3.79993 26.5002 3.60421 26.4402 3.43839 26.3279C3.27258 26.2156 3.14431 26.0561 3.07021 25.87L2.00021 23.21C1.81706 22.7399 1.81834 22.218 2.00379 21.7488C2.18924 21.2796 2.54515 20.8978 3.00021 20.68L4.35021 20V15C4.35021 14.6022 4.50824 14.2206 4.78955 13.9393C5.07085 13.658 5.45238 13.5 5.85021 13.5C6.24803 13.5 6.62956 13.658 6.91087 13.9393C7.19217 14.2206 7.35021 14.6022 7.35021 15V18.5L10.5002 19.13Z" stroke="#737373" stroke-linecap="round" stroke-linejoin="round"/>
<path d="M6.64645 39.3536C6.84171 39.5488 7.15829 39.5488 7.35355 39.3536L10.5355 36.1716C10.7308 35.9763 10.7308 35.6597 10.5355 35.4645C10.3403 35.2692 10.0237 35.2692 9.82843 35.4645L7 38.2929L4.17157 35.4645C3.97631 35.2692 3.65973 35.2692 3.46447 35.4645C3.2692 35.6597 3.2692 35.9763 3.46447 36.1716L6.64645 39.3536ZM6.5 31L6.5 39L7.5 39L7.5 31L6.5 31Z" fill="#DD3627"/>
</svg>
