<svg width="40" height="14" viewBox="0 0 40 14" fill="none" xmlns="http://www.w3.org/2000/svg">
<path d="M0.646446 6.64645C0.451184 6.84171 0.451184 7.15829 0.646446 7.35355L3.82843 10.5355C4.02369 10.7308 4.34027 10.7308 4.53553 10.5355C4.7308 10.3403 4.7308 10.0237 4.53553 9.82843L1.70711 7L4.53553 4.17157C4.7308 3.97631 4.7308 3.65973 4.53553 3.46447C4.34027 3.2692 4.02369 3.2692 3.82843 3.46447L0.646446 6.64645ZM9 6.5L1 6.5L1 7.5L9 7.5L9 6.5Z" fill="#DD3627"/>
<path d="M23.5002 6.13C24.0011 6.22973 24.4449 6.51734 24.7406 6.93385C25.0362 7.35036 25.1613 7.8642 25.0902 8.37L24.4802 12.64C24.4462 12.8803 24.3261 13.1 24.1421 13.2582C23.9581 13.4165 23.7229 13.5024 23.4802 13.5H17.0002C16.7999 13.5002 16.6042 13.4402 16.4384 13.3279C16.2726 13.2156 16.1443 13.0561 16.0702 12.87L15.0002 10.21C14.8171 9.73991 14.8183 9.21797 15.0038 8.74879C15.1892 8.2796 15.5452 7.89784 16.0002 7.68L17.3502 7V2C17.3502 1.60218 17.5082 1.22064 17.7895 0.93934C18.0709 0.658035 18.4524 0.5 18.8502 0.5C19.248 0.5 19.6296 0.658035 19.9109 0.93934C20.1922 1.22064 20.3502 1.60218 20.3502 2V5.5L23.5002 6.13Z" stroke="#737373" stroke-linecap="round" stroke-linejoin="round"/>
<path d="M39.3536 7.35355C39.5488 7.15829 39.5488 6.84171 39.3536 6.64645L36.1716 3.46447C35.9763 3.2692 35.6597 3.2692 35.4645 3.46447C35.2692 3.65973 35.2692 3.97631 35.4645 4.17157L38.2929 7L35.4645 9.82843C35.2692 10.0237 35.2692 10.3403 35.4645 10.5355C35.6597 10.7308 35.9763 10.7308 36.1716 10.5355L39.3536 7.35355ZM31 7.5L39 7.5V6.5L31 6.5V7.5Z" fill="#DD3627"/>
</svg>
