<svg width="20" height="20" viewBox="0 0 20 20" fill="none" xmlns="http://www.w3.org/2000/svg">
<path d="M10 0C4.486 0 0 4.486 0 10C0 15.514 4.486 20 10 20C15.514 20 20 15.514 20 10C20 4.486 15.514 0 10 0ZM10 4.1C10.2571 4.1 10.5085 4.17624 10.7222 4.31909C10.936 4.46194 11.1026 4.66497 11.201 4.90251C11.2994 5.14006 11.3252 5.40144 11.275 5.65362C11.2249 5.90579 11.101 6.13743 10.9192 6.31924C10.7374 6.50105 10.5058 6.62486 10.2536 6.67502C10.0014 6.72518 9.74006 6.69944 9.50251 6.60104C9.26497 6.50265 9.06194 6.33603 8.91909 6.12224C8.77624 5.90846 8.7 5.65712 8.7 5.4C8.7 5.05522 8.83696 4.72456 9.08076 4.48076C9.32456 4.23696 9.65522 4.1 10 4.1ZM13.2 15.4H7.2V13.8H9.4V9.4H7.8V7.8H11V13.8H13.2V15.4Z" fill="#DD3627"/>
</svg>
